# xmcd
#
# Track frame offsets: 
#        150
#        20844
#        40370
#        60914
#        85443
#        100942
#        126018
#        152212
#        165106
#        186822
#        201619
#        219418
#        239741
#        258008
#        278745
#
# Disc length: 4000 seconds
#
# Revision: 0
# Processed by: cddbd v1.4PL0 Copyright (c) Steve Scherf et al.
# Submitted via: ExactAudioCopy v0.90b4
#
DISCID=d10f9e0f
DTITLE=Van Morrison - Afternoon, Van !!!, disc 1
DYEAR=2003
DGENRE=Celtic
TTITLE0=So Complicated
TTITLE1=Only A Dream
TTITLE2=Talk Is Cheap
TTITLE3=Early In The Morning
TTITLE4=Chopping Wood
TTITLE5=When The Leaves Come Falling Down
TTITLE6=Too Long In Exile
TTITLE7=If You Only Knew
TTITLE8=In The Midnight
TTITLE9=Here Comes The Night
TTITLE10=Allow Me > Mama Don't Allow
TTITLE11=All Work And No Play
TTITLE12=Have I Told You Lately
TTITLE13=That's Life
TTITLE14=Muleskinner Blues
EXTD=
EXTT0=
EXTT1=
EXTT2=
EXTT3=
EXTT4=
EXTT5=
EXTT6=
EXTT7=
EXTT8=
EXTT9=
EXTT10=
EXTT11=
EXTT12=
EXTT13=
EXTT14=
PLAYORDER=
